<?xml version="1.0" standalone="no"?>
<!DOCTYPE svg PUBLIC "-//W3C//DTD SVG 20010904//EN"
 "http://www.w3.org/TR/2001/REC-SVG-20010904/DTD/svg10.dtd">
<svg version="1.0" xmlns="http://www.w3.org/2000/svg"
 width="120.000000pt" height="120.000000pt" viewBox="0 0 120.000000 120.000000"
 preserveAspectRatio="xMidYMid meet">
<metadata>
Created by potrace 1.14, written by Peter Selinger 2001-2017
</metadata>
<g transform="translate(0.000000,120.000000) scale(0.100000,-0.100000)"
fill="#000000" stroke="none">
<path d="M154 1161 c-80 -20 -131 -78 -143 -163 -12 -95 -6 -618 8 -663 18
-54 66 -103 116 -117 23 -6 126 -12 244 -13 204 -1 205 -1 220 -25 28 -43 95
-100 141 -122 69 -32 198 -31 265 2 206 101 253 363 93 520 -23 22 -58 48 -79
57 l-38 18 -1 150 c-2 218 -10 262 -58 308 -53 51 -82 55 -423 55 -173 0 -328
-3 -345 -7z"/>
</g>
</svg>
